<svg width="64" height="64" viewBox="0 0 64 64" fill="none" xmlns="http://www.w3.org/2000/svg">
<circle cx="32" cy="32" r="32" fill="white"/>
<path d="M39.25 36.4C39.25 37.2333 39.0417 38 38.625 38.7C38.2083 39.4 37.65 39.9583 36.95 40.375C36.2667 40.7917 35.5083 41 34.675 41H26.4V23.25H34.45C35.2833 23.25 36 23.475 36.6 23.925C37.2167 24.3583 37.6833 24.925 38 25.625C38.3333 26.3083 38.5 27.025 38.5 27.775C38.5 28.675 38.2667 29.5 37.8 30.25C37.35 31 36.7333 31.55 35.95 31.9C36.9667 32.2 37.7667 32.7667 38.35 33.6C38.95 34.4333 39.25 35.3667 39.25 36.4ZM27.275 24.05V31.65H34.15C34.8333 31.65 35.4333 31.4667 35.95 31.1C36.4833 30.7333 36.9 30.2583 37.2 29.675C37.5 29.0917 37.65 28.4833 37.65 27.85C37.65 27.1833 37.5083 26.5583 37.225 25.975C36.9417 25.3917 36.5417 24.925 36.025 24.575C35.525 24.225 34.95 24.05 34.3 24.05H27.275ZM38.4 36.325C38.4 35.6417 38.2417 35.0083 37.925 34.425C37.625 33.825 37.2 33.3417 36.65 32.975C36.1167 32.6083 35.5167 32.425 34.85 32.425H27.275V40.2H34.675C35.3583 40.2 35.9833 40.0167 36.55 39.65C37.1167 39.2667 37.5667 38.7833 37.9 38.2C38.2333 37.6 38.4 36.975 38.4 36.325Z" fill="black"/>
</svg>
