<svg width="35" height="35" viewBox="0 0 35 35" fill="none" xmlns="http://www.w3.org/2000/svg">
<g clip-path="url(#clip0_25_71)">
<path d="M17.5 1.03516C8.44419 1.03516 1.03491 8.44443 1.03491 17.5002C1.03491 26.556 8.44419 33.9653 17.5 33.9653C26.5557 33.9653 33.965 26.556 33.965 17.5002C33.965 8.44443 26.5557 1.03516 17.5 1.03516ZM25.5678 11.0788L22.7688 24.5802C22.6041 25.5681 21.9455 25.7327 21.2869 25.2388L17.006 21.9458C16.0181 22.9337 15.0302 23.7569 14.8656 24.0862C14.5363 24.2509 14.3716 24.5802 14.0423 24.5802C13.5484 24.5802 13.5484 24.2509 13.3837 23.9216L11.9018 18.9821L7.45628 17.5002C6.46838 17.1709 6.46838 16.5123 7.62093 16.0184L24.4153 9.59698C25.0739 9.43233 25.8971 9.76164 25.5678 11.0788ZM21.6162 12.5607L12.2312 18.4881L13.713 23.4276L14.0423 20.1346L22.1102 12.89C22.6041 12.396 22.2748 12.396 21.6162 12.5607Z" fill="black"/>
</g>
<defs>
<clipPath id="clip0_25_71">
<rect width="35" height="35" fill="white"/>
</clipPath>
</defs>
</svg>
